# xmcd CD database file
#
# Track frame offsets:
#	150
#	12446
#	32466
#	54954
#	70701
#	90981
#	113067
#	131995
#	155553
#	179683
#	197933
#	218981
#
# Disc length: 3141 seconds
#
# Revision: 0
# Processed by: cddbd v1.5.2PL0 Copyright (c) Steve Scherf et al.
# Submitted via: CDex 1.70beta2
#
DISCID=a50c430c
DTITLE=Nils Landgren - Funky Abba
DYEAR=1900
DGENRE=Jazz
TTITLE0=Landgren, Nils - Money, money, money
TTITLE1=Landgren, Nils - Knowing me, knowing you
TTITLE2=Landgren, Nils - Voulez-vous
TTITLE3=Landgren, Nils - Thank you for the music
TTITLE4=Landgren, Nils - Super trouper
TTITLE5=Landgren, Nils - Summer night city
TTITLE6=Landgren, Nils - Gimme! Gimme! Gimme!
TTITLE7=Landgren, Nils - The name of the game
TTITLE8=Landgren, Nils - Dancing queen
TTITLE9=Landgren, Nils - Take a chance on me
TTITLE10=Landgren, Nils - SOS
TTITLE11=Landgren, Nils - When all is said and done
EXTD=
EXTT0=
EXTT1=
EXTT2=
EXTT3=
EXTT4=
EXTT5=
EXTT6=
EXTT7=
EXTT8=
EXTT9=
EXTT10=
EXTT11=
PLAYORDER=
